<?xml version="1.0" encoding="utf-8"?>
<!-- Generator: Adobe Illustrator 19.2.1, SVG Export Plug-In . SVG Version: 6.00 Build 0)  -->
<svg version="1.1" id="Слой_1" xmlns="http://www.w3.org/2000/svg" xmlns:xlink="http://www.w3.org/1999/xlink" x="0px" y="0px"
	 viewBox="0 0 394.1 123.3" style="enable-background:new 0 0 394.1 123.3;" xml:space="preserve">
<style type="text/css">
	.st0{fill:#010202;}
	.st1{fill:#FBEA1F;}
	.st2{fill:#F8D826;}
	.st3{fill:#EC6922;}
	.st4{fill:#E62E1F;}
	.st5{fill:#F7A81C;}
	.st6{fill:#F7F1A6;}
	.st7{fill:#E84A23;}
	.st8{fill:#F08220;}
	.st9{fill:#FCC810;}
	.st10{fill:#F1E961;}
	.st11{fill:#F2E633;}
</style>
<g>
	<path class="st0" d="M161.4,54.3h-22.5V13.8h8.4v32.7h14.1V54.3z"/>
	<path class="st0" d="M165.9,13.6h8.4v40.6h-8.4V13.6z"/>
	<path class="st0" d="M199.3,24c-1.6-2.8-3.8-3.5-5.7-3.5c-2.4-0.1-4.8,1.1-5,4.2c-0.1,3,3.5,4.3,5.9,5c6.3,1.6,12.9,4.7,12.6,13.8
		c-0.3,8-7.5,11.7-14,11.7c-4.6,0-10.5-1.9-13.9-9.7l6.4-3.6c2,4.2,5.4,5.9,7.7,5.9c3.2,0.1,5.4-2,5.5-4.7c0.2-3.9-3.5-5.4-6.4-6.2
		c-4.2-1-12.1-3.9-12-12.1c0.2-8.2,6.9-11.8,13.2-11.8c4.9,0,9.2,2.3,11.9,7.5L199.3,24z"/>
	<path class="st0" d="M238.5,13.7v7.7h-10.2v32.9h-8.4V21.4h-9.1v-7.7H238.5z"/>
	<path class="st0" d="M161.4,110.3h-22.5V69.8h8.4v32.7h14.1V110.3z"/>
	<path class="st0" d="M206,90.1c0,12.8-9.5,21.3-20.9,21.3c-11.4,0-20.9-8.4-20.9-21.3c0-12.7,9.5-21.3,20.9-21.3
		C196.5,68.8,206,77.5,206,90.1z M185.1,103.8c6.2,0,12.4-4.5,12.4-13.8c0-9.1-6.3-13.8-12.5-13.8c-6.1,0.1-12.4,4.7-12.4,13.8
		C172.7,99.2,179,103.8,185.1,103.8z"/>
	<path class="st0" d="M248.9,77l-6,4.3c-3.2-3.8-7.3-5-10.9-5c-8,0-12.3,7.3-12.3,13.7c0,6.2,4.4,13.2,12.5,13.2
		c4.7,0,9.9-1.6,11.2-8.1h-15.4V88h23.9c0.9,14.7-7.5,23.1-19.8,23.1c-13.5,0-20.6-10.4-20.7-20.9c0-10.8,7.2-21.3,20.7-21.3
		C238.8,68.8,244,71,248.9,77z"/>
	<path class="st0" d="M259.5,69.6h8.4v40.6h-8.4V69.6z"/>
	<path class="st0" d="M292.8,80c-1.6-2.8-3.8-3.5-5.7-3.5c-2.4-0.1-4.8,1.1-5,4.2c-0.1,3,3.5,4.3,5.9,5c6.3,1.6,12.9,4.7,12.6,13.8
		c-0.3,8-7.5,11.7-14,11.7c-4.6,0-10.5-1.9-13.9-9.7l6.4-3.6c2,4.2,5.4,5.9,7.7,5.9c3.2,0.1,5.4-2,5.5-4.7c0.2-3.9-3.5-5.4-6.4-6.2
		c-4.2-1-12.1-3.9-12-12.1c0.2-8.2,6.9-11.8,13.2-11.8c4.9,0,9.2,2.3,11.9,7.5L292.8,80z"/>
	<path class="st0" d="M331,69.7v7.7h-9.1v32.9h-8.4V77.4h-9.1v-7.7H331z"/>
	<path class="st0" d="M335.4,69.6h8.4v40.6h-8.4V69.6z"/>
	<path class="st0" d="M380.8,81.1c-3.2-3.4-7.1-4.8-10.5-4.7c-8.1,0.2-12.5,6.6-12.5,13.8c0,7.2,4.5,13.4,12.5,13.4
		c3.6,0,7.7-1.5,11-5.4l5.7,4.4c-4.8,5.8-10.2,8.6-16.8,8.6c-13.5,0-20.7-10.2-20.7-21c0-10.9,7.2-21.4,20.7-21.4
		c5.9,0,11.3,2.1,15.8,7.6L380.8,81.1z"/>
</g>
<g>
	<path class="st0" d="M246.8,37.1h-4.3v-0.9h4.3c-0.2-1.4-1.3-2.5-2.9-2.5c-1,0-1.8,0.3-2.4,0.9l-0.6-0.8c0.7-0.7,1.8-1,3-1
		c2.6,0,4.2,1.8,4.2,4.1c0,2.3-1.6,4.1-4.2,4.1c-1.2,0-2.2-0.4-3-1l0.6-0.8c0.6,0.5,1.4,0.9,2.4,0.9
		C245.6,39.9,246.7,38.7,246.8,37.1z"/>
	<path class="st0" d="M256.6,37.1h-3.9v3.6h-1.1v-7.9h1.1v3.3h3.9v-3.3h1.1v7.9h-1.1V37.1z"/>
	<path class="st0" d="M267,40.7h-5.3v-7.9h5.2v1h-4.1v2.3h3.6v1h-3.6v2.6h4.1V40.7z"/>
	<path class="st0" d="M271.8,40.7h-1.1v-7.9h3c1.7,0,2.6,1.1,2.6,2.5c0,1.4-1.1,2.5-2.6,2.5h-1.8V40.7z M271.8,33.8v2.9h1.8
		c1,0,1.6-0.6,1.6-1.4c0-0.8-0.6-1.4-1.6-1.4H271.8z"/>
	<path class="st0" d="M284.9,33.8h-4v6.8h-1.1v-7.9h5.1V33.8z"/>
	<path class="st0" d="M293.4,34.7l-4,6h-1.1v-7.9h1.1v6l4-6h1.1v7.9h-1.1V34.7z"/>
	<path class="st0" d="M302.8,37.7h-1.3c-0.7,1-1.4,2-2.1,3h-1.3c0.7-1,1.4-2,2.2-3.1c-1.2-0.2-2-1.2-2-2.3c0-1.4,1-2.5,2.6-2.5h3
		v7.9h-1.1V37.7z M301,33.8c-1,0-1.6,0.6-1.6,1.4c0,0.8,0.6,1.4,1.6,1.4h1.8v-2.9H301z"/>
	<path class="st0" d="M314.1,40.7H313v-7.9h3c1.7,0,2.6,1.1,2.6,2.5c0,1.4-1.1,2.5-2.6,2.5h-1.8V40.7z M314.1,33.8v2.9h1.8
		c1,0,1.6-0.6,1.6-1.4c0-0.8-0.6-1.4-1.6-1.4H314.1z"/>
	<path class="st0" d="M328,40.7h-1.1l-0.8-1.9h-3.5l-0.7,1.9h-1.1l3-7.9h1.3L328,40.7z M322.9,37.8h2.9l-1.4-3.7L322.9,37.8z"/>
	<path class="st0" d="M335.1,38.5c0-1-0.5-1.5-1.3-1.5h-1.2v-0.9h1.3c0.6,0,1.4-0.5,1.4-1.3c0-0.8-0.7-1.3-1.5-1.3
		c-1,0-1.6,0.3-2.2,0.9l-0.6-0.8c0.7-0.7,1.6-1,2.8-1c1.5,0,2.5,0.8,2.5,2c0,0.8-0.5,1.6-1.4,1.9c1,0.2,1.6,1.1,1.6,2
		c0,1.3-1.3,2.3-2.9,2.3c-1.2,0-2.1-0.4-2.8-1l0.6-0.8c0.6,0.5,1.3,0.9,2.2,0.9C334.5,39.9,335.1,39.2,335.1,38.5z"/>
	<path class="st0" d="M344.3,36.6c0.9,0.3,1.5,1.1,1.5,2c0,1.2-1,2.1-2.3,2.1h-3.4v-7.9h2.9c1.3,0,2.4,0.7,2.4,1.9
		C345.5,35.5,345,36.2,344.3,36.6z M343.1,33.7h-1.9v2.4h1.9c0.7,0,1.3-0.6,1.3-1.2C344.4,34.3,343.8,33.7,343.1,33.7z M343.2,39.8
		c0.8,0,1.4-0.6,1.4-1.4c0-0.8-0.6-1.3-1.4-1.3h-2v2.7H343.2z"/>
	<path class="st0" d="M354.5,34.7l-4,6h-1.1v-7.9h1.1v6l4-6h1.1v7.9h-1.1V34.7z"/>
	<path class="st0" d="M365.1,33.8h-2.4v6.8h-1.1v-6.8h-2.4v-1h6V33.8z"/>
	<path class="st0" d="M373.6,34.7l-4,6h-1.1v-7.9h1.1v6l4-6h1.1v7.9h-1.1V34.7z"/>
	<path class="st0" d="M383,37.7h-1.3c-0.7,1-1.4,2-2.1,3h-1.3c0.7-1,1.4-2,2.2-3.1c-1.2-0.2-2-1.2-2-2.3c0-1.4,1-2.5,2.6-2.5h3v7.9
		H383V37.7z M381.2,33.8c-1,0-1.6,0.6-1.6,1.4c0,0.8,0.6,1.4,1.6,1.4h1.8v-2.9H381.2z"/>
	<path class="st0" d="M245.7,50.1c0.9,0.3,1.5,1.1,1.5,2c0,1.2-1,2.1-2.3,2.1h-3.4v-7.9h2.9c1.3,0,2.4,0.7,2.4,1.9
		C246.9,49,246.4,49.7,245.7,50.1z M244.5,47.2h-1.9v2.4h1.9c0.7,0,1.3-0.6,1.3-1.2C245.8,47.8,245.2,47.2,244.5,47.2z M244.6,53.3
		c0.8,0,1.4-0.6,1.4-1.4c0-0.8-0.6-1.3-1.4-1.3h-2v2.7H244.6z"/>
	<path class="st0" d="M257.3,54.2h-1.1l-0.8-1.9h-3.5l-0.7,1.9H250l3-7.9h1.3L257.3,54.2z M252.3,51.3h2.9l-1.4-3.7L252.3,51.3z"/>
	<path class="st0" d="M265.2,46.3h1.1v6.9h3.5v-6.9h1.1v7.9h-10.3v-7.9h1.1v6.9h3.5V46.3z"/>
	<path class="st0" d="M280.3,54.2H275v-7.9h5.2v1h-4.1v2.3h3.6v1h-3.6v2.6h4.1V54.2z"/>
	<path class="st0" d="M289,47.3h-4v6.8h-1.1v-7.9h5.1V47.3z"/>
	<path class="st0" d="M291,50.3c0-2.3,1.6-4.1,4.2-4.1c2.6,0,4.2,1.8,4.2,4.1c0,2.3-1.6,4.1-4.2,4.1C292.6,54.4,291,52.5,291,50.3z
		 M292.1,50.3c0,1.7,1.2,3,3.1,3c1.9,0,3.1-1.3,3.1-3c0-1.7-1.2-3-3.1-3C293.3,47.2,292.1,48.6,292.1,50.3z"/>
	<path class="st0" d="M313.1,47.3h-3.9v2.2h2c1.5,0,2.5,1,2.5,2.4c0,1.4-0.9,2.4-2.5,2.4h-3.1v-7.9h5.1V47.3z M311,53.3
		c1,0,1.5-0.6,1.5-1.4c0-0.8-0.5-1.4-1.5-1.4h-1.8v2.9H311z"/>
	<path class="st0" d="M322.5,48.2l-4,6h-1.1v-7.9h1.1v6l4-6h1.1v7.9h-1.1V48.2z"/>
	<path class="st0" d="M331.5,52c0-1-0.5-1.5-1.3-1.5h-1.2v-0.9h1.3c0.6,0,1.4-0.5,1.4-1.3c0-0.8-0.7-1.3-1.5-1.3
		c-1,0-1.6,0.3-2.2,0.9l-0.6-0.8c0.7-0.7,1.6-1,2.8-1c1.5,0,2.5,0.8,2.5,2c0,0.8-0.5,1.6-1.4,1.9c1,0.2,1.6,1.1,1.6,2
		c0,1.3-1.3,2.3-2.9,2.3c-1.2,0-2.1-0.4-2.8-1l0.6-0.8c0.6,0.5,1.3,0.9,2.2,0.9C330.9,53.4,331.5,52.7,331.5,52z"/>
	<path class="st0" d="M341.5,50.6h-3.9v3.6h-1.1v-7.9h1.1v3.3h3.9v-3.3h1.1v7.9h-1.1V50.6z"/>
	<path class="st0" d="M351.9,54.2h-5.3v-7.9h5.2v1h-4.1v2.3h3.6v1h-3.6v2.6h4.1V54.2z"/>
	<path class="st0" d="M361.7,52.5l0.6,0.9c-0.7,0.7-1.8,1-3,1c-2.6,0-4.2-1.8-4.2-4.1c0-2.3,1.6-4.1,4.2-4.1c1.2,0,2.2,0.4,3,1
		l-0.6,0.9c-0.6-0.5-1.4-0.9-2.4-0.9c-1.9,0-3,1.4-3,3.1c0,1.7,1.1,3.1,3,3.1C360.3,53.3,361.1,53,361.7,52.5z"/>
	<path class="st0" d="M372.2,54.2H371l-0.8-1.9h-3.5l-0.7,1.9h-1.1l3-7.9h1.3L372.2,54.2z M367.1,51.3h2.9l-1.4-3.7L367.1,51.3z"/>
</g>
<g>
	<polygon class="st1" points="47.6,88 47.6,102.3 57.2,111.9 64.3,119 71.5,111.9 81,102.3 81,88 64.3,104.7 	"/>
	<polygon class="st2" points="107.5,61.6 90.8,78.3 105.1,78.3 114.7,68.7 121.8,61.6 114.7,54.4 105.1,44.9 90.8,44.9 	"/>
	<polygon class="st3" points="57.3,11.4 47.8,20.9 47.8,35.2 64.5,18.5 81.2,35.2 81.2,20.9 71.6,11.4 64.5,4.2 	"/>
	<polygon class="st3" points="14.2,54.6 7,61.7 14.2,68.9 23.7,78.4 38,78.4 21.3,61.7 38,45 23.7,45 	"/>
	<polygon class="st4" points="31.2,28.1 7.6,28.1 17.7,38.2 31.2,38.2 41.4,38.2 41.4,28.1 41.4,14.6 31.2,4.5 	"/>
	<polygon class="st5" points="98.1,4.3 88,14.5 88,28 88,38.1 98.1,38.1 111.6,38.1 121.7,28 98.1,28 	"/>
	<polygon class="st5" points="17.2,85.2 7.1,95.3 30.7,95.3 30.7,118.9 40.9,108.8 40.9,95.3 40.9,85.2 30.7,85.2 	"/>
	<polygon class="st6" points="98.4,95.2 122,95.2 111.8,85.1 98.4,85.1 88.2,85.1 88.2,95.2 88.2,108.7 98.4,118.8 	"/>
	<polygon class="st7" points="21.3,61.7 7,61.7 23.7,45 38,45 	"/>
	<polygon class="st7" points="31.2,28.1 41.4,38.2 41.4,14.6 31.2,4.5 	"/>
	<polygon class="st8" points="64.5,18.5 64.5,4.2 81.2,20.9 81.2,35.2 	"/>
	<polygon class="st9" points="88,38.1 98.1,28 121.7,28 111.6,38.1 	"/>
	<polygon class="st10" points="107.5,61.6 121.8,61.6 105.1,78.3 90.8,78.3 	"/>
	<polygon class="st11" points="88.2,85.1 98.4,95.2 98.4,118.8 88.2,108.7 	"/>
	<polygon class="st9" points="64.3,104.7 64.3,119 47.6,102.3 47.6,88 	"/>
	<polygon class="st8" points="7.1,95.3 17.2,85.2 40.9,85.2 30.7,95.3 	"/>
</g>
</svg>
